# xmcd CD database file
#
# Track frame offsets:
#	300
#	14618
#	29280
#	50258
#	69222
#	86483
#	100926
#	112188
#	121817
#	135204
#	149246
#	159997
#
# Disc length: 2392 seconds
#
# Revision: 0
# Processed by: cddbd v1.5.1PL2 Copyright (c) Steve Scherf et al.
# Submitted via: CDex 1.51
#
DISCID=9e09540c
DTITLE=Compilations - Swingin' Sound
DYEAR=1900
DGENRE=Jazz
TTITLE0=Dave Brubeck - I'm In A Dancing Mood
TTITLE1=The Hi-Lo's - Everything's Coming Up Roses
TTITLE2=Duke Ellington - Perdido
TTITLE3=The Gerry Mulligan Quartet - What Is There To Say
TTITLE4=Buddy Greco - The Lady Is A Tramp
TTITLE5=Ray Coniff And His Orchestra - The Way You Look Tonight
TTITLE6=The Brothers Four - Marianne
TTITLE7=The Dave Brubeck Quartet With Carmen McRae - Paradiddle Joe
TTITLE8=Roy Hamilton - Angel Eyes
TTITLE9=Andre Previn - Like Love
TTITLE10=Lambert, Hendricks And Ross - Cloudburst
TTITLE11=Miles Davis - If I Were A Bell
EXTD=
EXTT0=
EXTT1=
EXTT2=
EXTT3=
EXTT4=
EXTT5=
EXTT6=
EXTT7=
EXTT8=
EXTT9=
EXTT10=
EXTT11=
PLAYORDER=
